<svg width="108.000000" height="31.000000" viewBox="0 0 108 31" fill="none" xmlns="http://www.w3.org/2000/svg" xmlns:xlink="http://www.w3.org/1999/xlink">
	<desc>
			Created with Pixso.
	</desc>
	<defs/>
	<path id="Shape" d="M16.95 14.01C16.92 10.52 19.53 8.82 19.65 8.75C18.17 6.36 15.88 6.03 15.08 6.01C13.15 5.78 11.29 7.28 10.31 7.28C9.31 7.28 7.8 6.03 6.17 6.07C4.08 6.1 2.12 7.44 1.05 9.53C-1.17 13.78 0.48 20.02 2.61 23.46C3.67 25.14 4.91 27.02 6.53 26.95C8.12 26.88 8.72 25.83 10.63 25.83C12.53 25.83 13.09 26.95 14.75 26.91C16.45 26.88 17.53 25.22 18.55 23.52C19.78 21.59 20.27 19.69 20.29 19.6C20.25 19.58 16.98 18.2 16.95 14.01Z" fill="#FFFFFF" fill-opacity="1.000000" fill-rule="nonzero"/>
	<path id="Shape" d="M13.91 4.06C14.77 2.89 15.35 1.31 15.19 -0.31C13.95 -0.25 12.39 0.63 11.49 1.77C10.7 2.78 9.99 4.42 10.17 5.97C11.57 6.09 13.01 5.21 13.91 4.06Z" fill="#FFFFFF" fill-opacity="1.000000" fill-rule="nonzero"/>
	<path id="Shape" d="M40.05 26.35L37.81 26.35L36.58 22.18L32.31 22.18L31.14 26.35L28.96 26.35L33.19 12.15L35.8 12.15L40.05 26.35ZM36.21 20.43L35.1 16.72C34.98 16.34 34.76 15.45 34.44 14.05L34.4 14.05C34.27 14.65 34.06 15.54 33.77 16.72L32.68 20.43L36.21 20.43Z" fill="#FFFFFF" fill-opacity="1.000000" fill-rule="nonzero"/>
	<path id="Shape" d="M50.9 21.1C50.9 22.85 50.46 24.22 49.59 25.23C48.8 26.13 47.83 26.58 46.67 26.58C45.41 26.58 44.51 26.1 43.96 25.13L43.96 30.5L41.86 30.5L41.86 19.48C41.86 18.38 41.83 17.26 41.78 16.11L43.63 16.11L43.75 17.73L43.79 17.73C44.49 16.51 45.56 15.9 46.98 15.9C48.1 15.9 49.03 16.38 49.78 17.33C50.53 18.29 50.9 19.55 50.9 21.1ZM48.76 21.19C48.76 20.19 48.55 19.37 48.13 18.72C47.68 18.05 47.07 17.71 46.3 17.71C45.78 17.71 45.31 17.9 44.89 18.27C44.47 18.64 44.19 19.13 44.06 19.73C44 20.02 43.96 20.25 43.96 20.43L43.96 22.13C43.96 22.88 44.17 23.51 44.6 24.02C45.02 24.53 45.57 24.79 46.24 24.79C47.04 24.79 47.65 24.46 48.09 23.8C48.53 23.14 48.76 22.27 48.76 21.19Z" fill="#FFFFFF" fill-opacity="1.000000" fill-rule="nonzero"/>
	<path id="Shape" d="M61.79 21.1C61.79 22.85 61.35 24.22 60.48 25.23C59.69 26.13 58.72 26.58 57.56 26.58C56.3 26.58 55.4 26.1 54.85 25.13L54.85 30.5L52.75 30.5L52.75 19.48C52.75 18.38 52.72 17.26 52.67 16.11L54.52 16.11L54.64 17.73L54.68 17.73C55.38 16.51 56.44 15.9 57.87 15.9C58.99 15.9 59.92 16.38 60.67 17.33C61.41 18.29 61.79 19.55 61.79 21.1ZM59.64 21.19C59.64 20.19 59.44 19.37 59.02 18.72C58.57 18.05 57.96 17.71 57.19 17.71C56.67 17.71 56.2 17.9 55.78 18.27C55.35 18.64 55.08 19.13 54.95 19.73C54.89 20.02 54.85 20.25 54.85 20.43L54.85 22.13C54.85 22.88 55.06 23.51 55.48 24.02C55.91 24.53 56.46 24.79 57.13 24.79C57.93 24.79 58.54 24.46 58.98 23.8C59.42 23.14 59.64 22.27 59.64 21.19Z" fill="#FFFFFF" fill-opacity="1.000000" fill-rule="nonzero"/>
	<path id="Shape" d="M73.96 22.37C73.96 23.57 73.57 24.56 72.8 25.32C71.94 26.14 70.75 26.56 69.22 26.56C67.81 26.56 66.67 26.26 65.82 25.67L66.31 23.78C67.23 24.37 68.24 24.66 69.35 24.66C70.14 24.66 70.76 24.47 71.2 24.08C71.64 23.7 71.86 23.18 71.86 22.54C71.86 21.96 71.68 21.48 71.31 21.08C70.95 20.69 70.35 20.33 69.5 19.99C67.2 19.06 66.05 17.71 66.05 15.92C66.05 14.76 66.46 13.8 67.27 13.06C68.08 12.31 69.16 11.94 70.49 11.94C71.69 11.94 72.68 12.17 73.48 12.62L72.95 14.47C72.2 14.03 71.36 13.82 70.42 13.82C69.68 13.82 69.1 14.01 68.68 14.41C68.33 14.76 68.16 15.19 68.16 15.69C68.16 16.25 68.36 16.72 68.76 17.08C69.11 17.42 69.75 17.79 70.67 18.18C71.8 18.67 72.63 19.24 73.16 19.9C73.7 20.56 73.96 21.39 73.96 22.37Z" fill="#FFFFFF" fill-opacity="1.000000" fill-rule="nonzero"/>
	<path id="Shape" d="M80.94 17.82L78.62 17.82L78.62 22.79C78.62 24.05 79.03 24.68 79.85 24.68C80.22 24.68 80.53 24.65 80.78 24.58L80.84 26.3C80.42 26.47 79.88 26.56 79.2 26.56C78.37 26.56 77.72 26.28 77.25 25.73C76.79 25.19 76.55 24.27 76.55 22.97L76.55 17.81L75.17 17.81L75.17 16.11L76.55 16.11L76.55 14.23L78.62 13.56L78.62 16.11L80.94 16.11L80.94 17.82Z" fill="#FFFFFF" fill-opacity="1.000000" fill-rule="nonzero"/>
	<path id="Shape" d="M91.38 21.15C91.38 22.72 90.96 24.01 90.13 25.02C89.26 26.06 88.11 26.58 86.66 26.58C85.27 26.58 84.17 26.08 83.34 25.09C82.52 24.09 82.1 22.83 82.1 21.32C82.1 19.73 82.53 18.43 83.38 17.42C84.23 16.41 85.38 15.9 86.82 15.9C88.21 15.9 89.33 16.4 90.17 17.4C90.98 18.37 91.38 19.61 91.38 21.15ZM89.2 21.2C89.2 20.26 89.01 19.46 88.63 18.78C88.19 17.97 87.56 17.56 86.74 17.56C85.9 17.56 85.26 17.97 84.81 18.78C84.44 19.46 84.25 20.27 84.25 21.24C84.25 22.18 84.44 22.99 84.81 23.66C85.27 24.47 85.9 24.88 86.73 24.88C87.53 24.88 88.16 24.46 88.62 23.64C89 22.95 89.2 22.14 89.2 21.2Z" fill="#FFFFFF" fill-opacity="1.000000" fill-rule="nonzero"/>
	<path id="Shape" d="M98.22 18.11C98.01 18.07 97.79 18.05 97.56 18.05C96.82 18.05 96.24 18.35 95.84 18.96C95.49 19.49 95.32 20.16 95.32 20.98L95.32 26.35L93.21 26.35L93.21 19.34C93.21 18.16 93.19 17.08 93.15 16.11L94.98 16.11L95.06 18.07L95.12 18.07C95.34 17.4 95.69 16.86 96.17 16.45C96.64 16.08 97.15 15.9 97.69 15.9C97.89 15.9 98.06 15.92 98.22 15.94L98.22 18.11Z" fill="#FFFFFF" fill-opacity="1.000000" fill-rule="nonzero"/>
	<path id="Shape" d="M107.63 20.75C107.63 21.15 107.6 21.5 107.55 21.78L101.24 21.78C101.26 22.79 101.57 23.56 102.16 24.1C102.69 24.57 103.37 24.81 104.22 24.81C105.15 24.81 106.01 24.65 106.77 24.33L107.1 25.91C106.21 26.33 105.15 26.54 103.93 26.54C102.46 26.54 101.31 26.07 100.47 25.14C99.63 24.21 99.21 22.95 99.21 21.38C99.21 19.84 99.6 18.55 100.38 17.53C101.2 16.43 102.3 15.88 103.69 15.88C105.06 15.88 106.09 16.43 106.79 17.53C107.35 18.39 107.63 19.47 107.63 20.75ZM105.62 20.16C105.64 19.48 105.5 18.9 105.21 18.41C104.85 17.77 104.29 17.46 103.54 17.46C102.85 17.46 102.29 17.77 101.86 18.39C101.51 18.88 101.3 19.47 101.24 20.15L105.62 20.16Z" fill="#FFFFFF" fill-opacity="1.000000" fill-rule="nonzero"/>
	<path id="Shape" d="M35.47 6.79L34.37 6.79L33.77 4.77L31.67 4.77L31.1 6.79L30.03 6.79L32.1 -0.07L33.38 -0.07L35.47 6.79ZM33.59 3.93L33.04 2.14C32.98 1.95 32.88 1.53 32.72 0.85L32.7 0.85C32.63 1.14 32.53 1.57 32.39 2.14L31.85 3.93L33.59 3.93Z" fill="#FFFFFF" fill-opacity="1.000000" fill-rule="nonzero"/>
	<path id="Shape" d="M40.66 1.84L38.9 6.79L37.9 6.79L36.19 1.84L37.3 1.84L38.1 4.46C38.23 4.9 38.35 5.31 38.43 5.71L38.46 5.71C38.54 5.35 38.65 4.94 38.8 4.46L39.58 1.84L40.66 1.84Z" fill="#FFFFFF" fill-opacity="1.000000" fill-rule="nonzero"/>
	<path id="Shape" d="M44.41 6.79L44.33 6.22L44.3 6.22C43.99 6.68 43.53 6.9 42.95 6.9C42.11 6.9 41.52 6.28 41.52 5.44C41.52 4.22 42.52 3.59 44.24 3.59L44.24 3.5C44.24 2.85 43.91 2.52 43.27 2.52C42.81 2.52 42.41 2.65 42.06 2.89L41.85 2.17C42.28 1.88 42.81 1.74 43.45 1.74C44.66 1.74 45.27 2.42 45.27 3.79L45.27 5.61C45.27 6.11 45.29 6.49 45.34 6.79L44.41 6.79ZM44.27 4.32C43.12 4.32 42.54 4.62 42.54 5.32C42.54 5.84 42.84 6.09 43.25 6.09C43.78 6.09 44.27 5.67 44.27 5.09L44.27 4.32Z" fill="#FFFFFF" fill-opacity="1.000000" fill-rule="nonzero"/>
	<path id="Shape" d="M47.57 1.03C47.23 1.03 46.96 0.74 46.96 0.37C46.96 -0.01 47.24 -0.28 47.59 -0.28C47.95 -0.28 48.23 -0.01 48.22 0.37C48.22 0.76 47.96 1.03 47.57 1.03ZM48.11 6.79L47.08 6.79L47.08 1.84L48.11 1.84L48.11 6.79Z" fill="#FFFFFF" fill-opacity="1.000000" fill-rule="nonzero"/>
	<path id="Shape" d="M50.98 6.79L49.94 6.79L49.94 -0.43L50.98 -0.43L50.98 6.79Z" fill="#FFFFFF" fill-opacity="1.000000" fill-rule="nonzero"/>
	<path id="Shape" d="M55.37 6.79L55.29 6.22L55.26 6.22C54.95 6.68 54.49 6.9 53.9 6.9C53.07 6.9 52.48 6.28 52.48 5.44C52.48 4.22 53.47 3.59 55.2 3.59L55.2 3.5C55.2 2.85 54.87 2.52 54.23 2.52C53.77 2.52 53.37 2.65 53.02 2.89L52.8 2.17C53.24 1.88 53.77 1.74 54.4 1.74C55.62 1.74 56.23 2.42 56.23 3.79L56.23 5.61C56.23 6.11 56.25 6.49 56.3 6.79L55.37 6.79ZM55.22 4.32C54.08 4.32 53.5 4.62 53.5 5.32C53.5 5.84 53.8 6.09 54.21 6.09C54.74 6.09 55.22 5.67 55.22 5.09L55.22 4.32Z" fill="#FFFFFF" fill-opacity="1.000000" fill-rule="nonzero"/>
	<path id="Shape" d="M60.42 6.9C59.76 6.9 59.27 6.6 58.95 6.02L58.93 6.02L58.87 6.79L57.99 6.79C58.02 6.39 58.03 5.94 58.03 5.45L58.03 -0.43L59.07 -0.43L59.07 2.57L59.09 2.57C59.39 2.02 59.89 1.74 60.57 1.74C61.69 1.74 62.47 2.76 62.47 4.25C62.47 5.78 61.6 6.9 60.42 6.9ZM60.21 2.61C59.61 2.61 59.07 3.15 59.07 3.92L59.07 4.78C59.07 5.46 59.56 6.02 60.19 6.02C60.96 6.02 61.42 5.35 61.42 4.29C61.42 3.29 60.94 2.61 60.21 2.61Z" fill="#FFFFFF" fill-opacity="1.000000" fill-rule="nonzero"/>
	<path id="Shape" d="M65.03 6.79L64 6.79L64 -0.43L65.03 -0.43L65.03 6.79Z" fill="#FFFFFF" fill-opacity="1.000000" fill-rule="nonzero"/>
	<path id="Shape" d="M70.66 4.58L67.55 4.58C67.58 5.52 68.16 6.04 69.02 6.04C69.48 6.04 69.9 5.96 70.27 5.81L70.43 6.57C69.99 6.78 69.48 6.88 68.87 6.88C67.42 6.88 66.56 5.9 66.56 4.39C66.56 2.87 67.44 1.73 68.76 1.73C69.94 1.73 70.69 2.67 70.69 4.08C70.69 4.27 70.69 4.45 70.66 4.58ZM69.71 3.8C69.71 3.03 69.34 2.49 68.68 2.49C68.09 2.49 67.62 3.04 67.55 3.8L69.71 3.8Z" fill="#FFFFFF" fill-opacity="1.000000" fill-rule="nonzero"/>
	<path id="Shape" d="M76.92 6.9C75.56 6.9 74.68 5.82 74.68 4.36C74.68 2.83 75.58 1.74 77 1.74C78.33 1.74 79.23 2.77 79.23 4.28C79.23 5.82 78.31 6.9 76.92 6.9ZM76.96 2.54C76.21 2.54 75.73 3.29 75.73 4.32C75.73 5.34 76.22 6.09 76.95 6.09C77.67 6.09 78.16 5.29 78.16 4.3C78.16 3.3 77.68 2.54 76.96 2.54Z" fill="#FFFFFF" fill-opacity="1.000000" fill-rule="nonzero"/>
	<path id="Shape" d="M84.79 6.79L83.76 6.79L83.76 3.95C83.76 3.07 83.44 2.64 82.82 2.64C82.21 2.64 81.78 3.2 81.78 3.85L81.78 6.79L80.75 6.79L80.75 3.26C80.75 2.82 80.74 2.35 80.71 1.84L81.62 1.84L81.67 2.61L81.7 2.61C81.97 2.08 82.54 1.74 83.17 1.74C84.15 1.74 84.79 2.53 84.79 3.83L84.79 6.79Z" fill="#FFFFFF" fill-opacity="1.000000" fill-rule="nonzero"/>
	<path id="Shape" d="M91.55 2.67L90.41 2.67L90.41 5.07C90.41 5.68 90.61 5.98 91.01 5.98C91.19 5.98 91.35 5.96 91.47 5.93L91.5 6.77C91.3 6.85 91.03 6.89 90.7 6.89C89.88 6.89 89.4 6.41 89.4 5.16L89.4 2.67L88.72 2.67L88.72 1.84L89.4 1.84L89.4 0.94L90.41 0.61L90.41 1.84L91.55 1.84L91.55 2.67Z" fill="#FFFFFF" fill-opacity="1.000000" fill-rule="nonzero"/>
	<path id="Shape" d="M97.02 6.79L95.98 6.79L95.98 3.97C95.98 3.08 95.67 2.64 95.05 2.64C94.51 2.64 94.01 3.02 94.01 3.81L94.01 6.79L92.98 6.79L92.98 -0.43L94.01 -0.43L94.01 2.54L94.03 2.54C94.36 2.01 94.83 1.74 95.43 1.74C96.41 1.74 97.02 2.55 97.02 3.85L97.02 6.79Z" fill="#FFFFFF" fill-opacity="1.000000" fill-rule="nonzero"/>
	<path id="Shape" d="M102.3 4.58L99.2 4.58C99.22 5.52 99.8 6.04 100.66 6.04C101.12 6.04 101.54 5.96 101.91 5.81L102.07 6.57C101.63 6.78 101.12 6.88 100.51 6.88C99.06 6.88 98.2 5.9 98.2 4.39C98.2 2.87 99.08 1.73 100.4 1.73C101.58 1.73 102.33 2.67 102.33 4.08C102.33 4.27 102.32 4.45 102.3 4.58ZM101.35 3.8C101.35 3.03 100.99 2.49 100.33 2.49C99.73 2.49 99.26 3.04 99.2 3.8L101.35 3.8Z" fill="#FFFFFF" fill-opacity="1.000000" fill-rule="nonzero"/>
</svg>
