<svg width="107.000000" height="27.000000" viewBox="0 0 107 27" fill="none" xmlns="http://www.w3.org/2000/svg" xmlns:xlink="http://www.w3.org/1999/xlink">
	<desc>
			Created with Pixso.
	</desc>
	<defs>
		<linearGradient x1="7.327188" y1="24.047041" x2="2.945322" y2="7.524496" id="paint_linear_680_15_0" gradientUnits="userSpaceOnUse">
			<stop stop-color="#00A0FF"/>
			<stop offset="0.006600" stop-color="#00A1FF"/>
			<stop offset="0.260100" stop-color="#00BEFF"/>
			<stop offset="0.512200" stop-color="#00D2FF"/>
			<stop offset="0.760400" stop-color="#00DFFF"/>
			<stop offset="1.000000" stop-color="#00E3FF"/>
		</linearGradient>
		<linearGradient x1="21.878092" y1="12.929935" x2="-0.305984" y2="12.929935" id="paint_linear_680_16_0" gradientUnits="userSpaceOnUse">
			<stop stop-color="#FFE000"/>
			<stop offset="0.408700" stop-color="#FFBD00"/>
			<stop offset="0.775400" stop-color="#FFA500"/>
			<stop offset="1.000000" stop-color="#FF9C00"/>
		</linearGradient>
		<linearGradient x1="13.620824" y1="14.495611" x2="-7.244327" y2="2.063692" id="paint_linear_680_17_0" gradientUnits="userSpaceOnUse">
			<stop stop-color="#FF3A44"/>
			<stop offset="1.000000" stop-color="#C31162"/>
		</linearGradient>
		<linearGradient x1="-2.450671" y1="20.933455" x2="6.866557" y2="15.385768" id="paint_linear_680_18_0" gradientUnits="userSpaceOnUse">
			<stop stop-color="#32A071"/>
			<stop offset="0.068500" stop-color="#2DA771"/>
			<stop offset="0.476200" stop-color="#15CF74"/>
			<stop offset="0.800900" stop-color="#06E775"/>
			<stop offset="1.000000" stop-color="#00F076"/>
		</linearGradient>
	</defs>
	<path id="path20" d="M34.33 3.32C34.33 4.14 34.1 4.8 33.65 5.29C33.13 5.88 32.45 6.17 31.62 6.17C30.83 6.17 30.15 5.87 29.6 5.28C29.04 4.69 28.77 3.96 28.77 3.08C28.77 2.21 29.04 1.48 29.6 0.88C30.15 0.29 30.83 0 31.62 0C32.02 0 32.39 0.08 32.75 0.24C33.11 0.41 33.4 0.63 33.61 0.9L33.13 1.42C32.76 0.96 32.26 0.73 31.62 0.73C31.04 0.73 30.54 0.94 30.12 1.38C29.7 1.82 29.49 2.38 29.49 3.08C29.49 3.78 29.7 4.35 30.12 4.79C30.54 5.22 31.04 5.44 31.62 5.44C32.24 5.44 32.75 5.22 33.16 4.78C33.43 4.49 33.58 4.1 33.62 3.59L31.62 3.59L31.62 2.87L34.29 2.87C34.32 3.03 34.33 3.18 34.33 3.32Z" fill="#FFFFFF" fill-opacity="1.000000" fill-rule="nonzero"/>
	<path id="path20 (Stroke)" d="M31.62 0.31C30.92 0.31 30.32 0.57 29.83 1.1C29.33 1.63 29.08 2.28 29.08 3.08C29.08 3.88 29.33 4.54 29.83 5.07C30.32 5.6 30.92 5.86 31.62 5.86C32.37 5.86 32.96 5.6 33.41 5.08L33.42 5.08C33.8 4.66 34.01 4.08 34.01 3.32C34.01 3.28 34.01 3.23 34.01 3.19L31.93 3.19L31.93 3.27L33.96 3.27L33.93 3.61C33.89 4.17 33.72 4.64 33.39 5C32.92 5.5 32.32 5.75 31.62 5.75C30.95 5.75 30.37 5.49 29.9 5.01L29.89 5C29.41 4.5 29.17 3.85 29.17 3.08C29.17 2.32 29.41 1.67 29.89 1.16L29.89 1.16C30.38 0.67 30.96 0.41 31.62 0.41C32.22 0.41 32.73 0.59 33.13 0.96L33.19 0.9C33.03 0.76 32.85 0.63 32.62 0.53C32.3 0.38 31.97 0.31 31.62 0.31ZM29.37 0.67C29.98 0.02 30.74 -0.32 31.62 -0.32C32.06 -0.32 32.48 -0.22 32.88 -0.04L32.88 -0.04C33.28 0.14 33.61 0.39 33.86 0.71L34.02 0.92L33.11 1.9L32.89 1.62C32.58 1.23 32.18 1.04 31.62 1.04C31.13 1.04 30.71 1.22 30.34 1.6C29.99 1.97 29.8 2.45 29.8 3.08C29.8 3.71 29.99 4.2 30.34 4.57C30.71 4.95 31.14 5.13 31.62 5.13C32.15 5.13 32.58 4.94 32.93 4.57C33.08 4.41 33.19 4.19 33.26 3.9L31.31 3.9L31.31 2.56L34.54 2.56L34.59 2.81C34.63 2.99 34.64 3.16 34.64 3.32C34.64 4.2 34.39 4.94 33.88 5.5C33.3 6.15 32.53 6.48 31.62 6.48C30.74 6.48 29.98 6.15 29.37 5.5L29.37 5.5C28.76 4.84 28.45 4.03 28.45 3.08C28.45 2.13 28.76 1.32 29.37 0.67Z" fill="#FFFFFF" fill-opacity="1.000000" fill-rule="evenodd"/>
	<path id="path24" d="M38.55 0.86L36.05 0.86L36.05 2.73L38.31 2.73L38.31 3.44L36.05 3.44L36.05 5.31L38.55 5.31L38.55 6.03L35.34 6.03L35.34 0.13L38.55 0.13L38.55 0.86Z" fill="#FFFFFF" fill-opacity="1.000000" fill-rule="nonzero"/>
	<path id="path24 (Stroke)" d="M35.03 -0.18L38.86 -0.18L38.86 1.17L36.36 1.17L36.36 2.41L38.62 2.41L38.62 3.75L36.36 3.75L36.36 5L38.86 5L38.86 6.34L35.03 6.34L35.03 -0.18ZM35.65 0.44L35.65 5.72L38.24 5.72L38.24 5.62L35.74 5.62L35.74 3.12L37.99 3.12L37.99 3.04L35.74 3.04L35.74 0.54L38.24 0.54L38.24 0.44L35.65 0.44Z" fill="#FFFFFF" fill-opacity="1.000000" fill-rule="evenodd"/>
	<path id="path28" d="M41.53 6.03L40.83 6.03L40.83 0.86L39.29 0.86L39.29 0.13L43.07 0.13L43.07 0.86L41.53 0.86L41.53 6.03Z" fill="#FFFFFF" fill-opacity="1.000000" fill-rule="nonzero"/>
	<path id="path28 (Stroke)" d="M38.98 -0.18L43.38 -0.18L43.38 1.17L41.85 1.17L41.85 6.34L40.51 6.34L40.51 1.17L38.98 1.17L38.98 -0.18ZM39.6 0.44L39.6 0.54L41.14 0.54L41.14 5.72L41.22 5.72L41.22 0.54L42.76 0.54L42.76 0.44L39.6 0.44Z" fill="#FFFFFF" fill-opacity="1.000000" fill-rule="evenodd"/>
	<path id="path32" d="M45.8 6.03L45.8 0.13L46.51 0.13L46.51 6.03L45.8 6.03Z" fill="#FFFFFF" fill-opacity="1.000000" fill-rule="nonzero"/>
	<path id="path32 (Stroke)" d="M45.49 -0.18L46.82 -0.18L46.82 6.34L45.49 6.34L45.49 -0.18ZM46.12 0.44L46.12 5.72L46.2 5.72L46.2 0.44L46.12 0.44Z" fill="#FFFFFF" fill-opacity="1.000000" fill-rule="evenodd"/>
	<path id="path36" d="M49.65 6.03L48.94 6.03L48.94 0.86L47.4 0.86L47.4 0.13L51.19 0.13L51.19 0.86L49.65 0.86L49.65 6.03Z" fill="#FFFFFF" fill-opacity="1.000000" fill-rule="nonzero"/>
	<path id="path36 (Stroke)" d="M47.09 -0.18L51.5 -0.18L51.5 1.17L49.96 1.17L49.96 6.34L48.63 6.34L48.63 1.17L47.09 1.17L47.09 -0.18ZM47.71 0.44L47.71 0.54L49.26 0.54L49.26 5.72L49.33 5.72L49.33 0.54L50.87 0.54L50.87 0.44L47.71 0.44Z" fill="#FFFFFF" fill-opacity="1.000000" fill-rule="evenodd"/>
	<path id="path40" d="M58.34 5.27C57.8 5.87 57.13 6.17 56.32 6.17C55.52 6.17 54.85 5.87 54.3 5.27C53.76 4.68 53.49 3.95 53.49 3.08C53.49 2.22 53.76 1.49 54.3 0.89C54.85 0.29 55.52 0 56.32 0C57.12 0 57.79 0.29 58.33 0.89C58.88 1.5 59.15 2.22 59.15 3.08C59.15 3.95 58.88 4.68 58.34 5.27ZM54.83 4.78C55.24 5.22 55.73 5.44 56.32 5.44C56.91 5.44 57.41 5.22 57.82 4.78C58.22 4.34 58.43 3.77 58.43 3.08C58.43 2.39 58.22 1.83 57.82 1.38C57.41 0.94 56.91 0.72 56.32 0.72C55.73 0.72 55.24 0.94 54.83 1.38C54.42 1.83 54.22 2.39 54.22 3.08C54.22 3.77 54.42 4.34 54.83 4.78Z" fill="#FFFFFF" fill-opacity="1.000000" fill-rule="nonzero"/>
	<path id="path40 (Stroke)" d="M56.32 0.31C55.61 0.31 55.02 0.57 54.54 1.1L54.3 0.89L54.54 1.1C54.05 1.63 53.81 2.29 53.81 3.08C53.81 3.88 54.05 4.53 54.54 5.06C55.02 5.59 55.61 5.86 56.32 5.86C57.04 5.86 57.62 5.6 58.11 5.06C58.59 4.53 58.84 3.88 58.84 3.08C58.84 2.29 58.59 1.64 58.1 1.1L58.1 1.1C57.62 0.57 57.03 0.31 56.32 0.31ZM54.07 0.68C54.67 0.02 55.43 -0.32 56.32 -0.32C57.21 -0.32 57.97 0.02 58.57 0.68C59.17 1.35 59.46 2.15 59.46 3.08C59.46 4.02 59.17 4.83 58.57 5.48L58.57 5.48C57.97 6.15 57.21 6.48 56.32 6.48C55.43 6.48 54.67 6.15 54.07 5.48L54.07 5.48C53.48 4.83 53.18 4.02 53.18 3.08C53.18 2.15 53.48 1.34 54.07 0.68L54.07 0.68ZM54.6 1.17C55.06 0.67 55.64 0.41 56.32 0.41C57 0.41 57.58 0.67 58.05 1.17C58.51 1.68 58.74 2.33 58.74 3.08C58.74 3.84 58.51 4.48 58.05 4.99C57.58 5.5 57 5.75 56.32 5.75C55.64 5.75 55.06 5.49 54.6 4.99L54.6 4.99C54.13 4.48 53.9 3.84 53.9 3.08C53.9 2.33 54.13 1.68 54.6 1.17L54.6 1.17ZM55.06 1.6C54.71 1.97 54.53 2.46 54.53 3.08C54.53 3.7 54.71 4.19 55.06 4.57C55.41 4.95 55.82 5.13 56.32 5.13C56.82 5.13 57.24 4.95 57.58 4.57L57.59 4.57C57.93 4.19 58.12 3.7 58.12 3.08C58.12 2.46 57.93 1.97 57.59 1.6L57.58 1.6C57.24 1.22 56.82 1.03 56.32 1.03C55.82 1.03 55.41 1.22 55.06 1.6Z" fill="#FFFFFF" fill-opacity="1.000000" fill-rule="evenodd"/>
	<path id="path44" d="M60.14 6.03L60.14 0.13L61 0.13L63.67 4.72L63.71 4.72L63.67 3.59L63.67 0.13L64.38 0.13L64.38 6.03L63.64 6.03L60.84 1.22L60.81 1.22L60.84 2.36L60.84 6.03L60.14 6.03Z" fill="#FFFFFF" fill-opacity="1.000000" fill-rule="nonzero"/>
	<path id="path44 (Stroke)" d="M59.83 -0.18L61.18 -0.18L63.36 3.56L63.36 -0.18L64.69 -0.18L64.69 6.34L63.46 6.34L61.16 2.38L61.16 6.34L59.83 6.34L59.83 -0.18ZM60.45 0.44L60.45 5.72L60.53 5.72L60.53 2.36L60.49 0.9L61.02 0.9L63.82 5.72L64.07 5.72L64.07 0.44L63.99 0.44L63.99 3.58L64.03 5.03L63.49 5.03L60.82 0.44L60.45 0.44Z" fill="#FFFFFF" fill-opacity="1.000000" fill-rule="evenodd"/>
	<path id="path46" d="M53.32 14.65C51.17 14.65 49.41 16.41 49.41 18.84C49.41 21.25 51.17 23.03 53.32 23.03C55.48 23.03 57.24 21.25 57.24 18.84C57.24 16.41 55.48 14.65 53.32 14.65ZM53.32 21.38C52.14 21.38 51.12 20.33 51.12 18.84C51.12 17.33 52.14 16.3 53.32 16.3C54.5 16.3 55.52 17.33 55.52 18.84C55.52 20.33 54.5 21.38 53.32 21.38ZM44.78 14.65C42.63 14.65 40.87 16.41 40.87 18.84C40.87 21.25 42.63 23.03 44.78 23.03C46.94 23.03 48.7 21.25 48.7 18.84C48.7 16.41 46.94 14.65 44.78 14.65ZM44.78 21.38C43.6 21.38 42.58 20.33 42.58 18.84C42.58 17.33 43.6 16.3 44.78 16.3C45.97 16.3 46.98 17.33 46.98 18.84C46.98 20.33 45.97 21.38 44.78 21.38ZM34.63 15.94L34.63 17.71L38.58 17.71C38.47 18.71 38.16 19.44 37.68 19.95C37.11 20.57 36.21 21.25 34.63 21.25C32.19 21.25 30.28 19.14 30.28 16.52C30.28 13.91 32.19 11.8 34.63 11.8C35.94 11.8 36.9 12.35 37.61 13.07L38.78 11.81C37.79 10.8 36.47 10.02 34.63 10.02C31.29 10.02 28.48 12.94 28.48 16.52C28.48 20.11 31.29 23.03 34.63 23.03C36.43 23.03 37.79 22.39 38.85 21.2C39.94 20.03 40.28 18.38 40.28 17.05C40.28 16.63 40.25 16.25 40.2 15.94L34.63 15.94ZM76.16 17.31C75.84 16.38 74.85 14.65 72.82 14.65C70.82 14.65 69.15 16.35 69.15 18.84C69.15 21.19 70.8 23.03 73.02 23.03C74.81 23.03 75.84 21.85 76.27 21.17L74.94 20.22C74.49 20.92 73.89 21.38 73.02 21.38C72.15 21.38 71.53 20.95 71.13 20.11L76.34 17.79L76.16 17.31ZM70.85 18.71C70.8 17.09 72.01 16.27 72.88 16.27C73.56 16.27 74.14 16.63 74.33 17.16L70.85 18.71ZM66.61 22.77L68.32 22.77L68.32 10.47L66.61 10.47L66.61 22.77ZM63.8 15.58L63.74 15.58C63.36 15.09 62.62 14.65 61.69 14.65C59.74 14.65 57.95 16.49 57.95 18.85C57.95 21.2 59.74 23.03 61.69 23.03C62.62 23.03 63.36 22.58 63.74 22.08L63.8 22.08L63.8 22.68C63.8 24.28 63 25.14 61.72 25.14C60.67 25.14 60.02 24.32 59.75 23.64L58.26 24.31C58.69 25.42 59.83 26.79 61.72 26.79C63.73 26.79 65.42 25.52 65.42 22.43L65.42 14.91L63.8 14.91L63.8 15.58ZM61.84 21.38C60.66 21.38 59.67 20.32 59.67 18.85C59.67 17.38 60.66 16.3 61.84 16.3C63 16.3 63.92 17.38 63.92 18.85C63.92 20.32 63 21.38 61.84 21.38ZM84.19 10.47L80.09 10.47L80.09 22.77L81.8 22.77L81.8 18.11L84.19 18.11C86.09 18.11 87.95 16.63 87.95 14.29C87.95 11.94 86.09 10.47 84.19 10.47ZM84.24 16.4L81.8 16.4L81.8 12.18L84.24 12.18C85.51 12.18 86.24 13.32 86.24 14.29C86.24 15.24 85.51 16.4 84.24 16.4ZM94.81 14.63C93.57 14.63 92.29 15.21 91.76 16.51L93.27 17.2C93.6 16.51 94.2 16.29 94.84 16.29C95.72 16.29 96.62 16.86 96.64 17.87L96.64 18C96.33 17.81 95.66 17.53 94.85 17.53C93.22 17.53 91.55 18.49 91.55 20.3C91.55 21.94 92.89 23.01 94.39 23.01C95.54 23.01 96.18 22.45 96.58 21.8L96.64 21.8L96.64 22.75L98.29 22.75L98.29 18.03C98.29 15.85 96.77 14.63 94.81 14.63ZM94.6 21.37C94.04 21.37 93.26 21.07 93.26 20.33C93.26 19.38 94.23 19.01 95.07 19.01C95.83 19.01 96.18 19.19 96.64 19.43C96.5 20.57 95.59 21.37 94.6 21.37ZM104.31 14.9L102.34 20.23L102.28 20.23L100.25 14.9L98.41 14.9L101.46 22.35L99.72 26.5L101.5 26.5L106.21 14.9L104.31 14.9ZM88.89 22.77L90.61 22.77L90.61 10.47L88.89 10.47L88.89 22.77Z" fill="#FFFFFF" fill-opacity="1.000000" fill-rule="nonzero"/>
	<path id="path64" d="M0.42 0.66C0.15 0.96 0 1.43 0 2.04L0 23.82C0 24.43 0.15 24.9 0.42 25.2L0.49 25.27L11.85 13.07L11.85 12.78L0.49 0.59L0.42 0.66Z" fill="url(#paint_linear_680_15_0)" fill-opacity="1.000000" fill-rule="nonzero"/>
	<path id="path78" d="M15.63 17.14L11.85 13.07L11.85 12.78L15.64 8.72L15.72 8.77L20.21 11.51C21.49 12.29 21.49 13.57 20.21 14.35L15.72 17.08L15.63 17.14Z" fill="url(#paint_linear_680_16_0)" fill-opacity="1.000000" fill-rule="nonzero"/>
	<path id="path88" d="M15.72 17.08L11.85 12.93L0.42 25.2C0.85 25.68 1.54 25.74 2.33 25.26L15.72 17.08Z" fill="url(#paint_linear_680_17_0)" fill-opacity="1.000000" fill-rule="nonzero"/>
	<path id="path104" d="M15.72 8.77L2.33 0.6C1.54 0.12 0.85 0.18 0.42 0.66L11.85 12.93L15.72 8.77Z" fill="url(#paint_linear_680_18_0)" fill-opacity="1.000000" fill-rule="nonzero"/>
</svg>
